<svg width="15.000000" height="15.000000" viewBox="0 0 15 15" fill="none" xmlns="http://www.w3.org/2000/svg" xmlns:xlink="http://www.w3.org/1999/xlink">
	<desc>
			Created with Pixso.
	</desc>
	<defs/>
	<path id="Union" d="M1.28 3.28C2.68 1.34 4.49 0.28 6.85 0C5.76 1.28 4.99 2.65 4.49 4.27C3.42 3.94 2.38 3.62 1.28 3.28ZM8.13 0C10.5 0.27 12.29 1.34 13.66 3.21C12.64 3.69 11.59 3.99 10.48 4.21C10 2.66 9.24 1.28 8.13 0ZM9.54 4.36C8.17 4.54 6.83 4.54 5.45 4.36C5.88 2.99 6.56 1.8 7.49 0.69C8.42 1.78 9.1 2.98 9.54 4.36ZM2.51 4.68C2.92 4.8 3.33 4.91 3.75 5.02C3.92 5.06 4.09 5.11 4.27 5.16C4.11 5.94 4.03 6.73 4.03 7.51C4.03 8.28 4.11 9.04 4.27 9.8C3.71 9.97 3.17 10.14 2.63 10.31L2.63 10.31C2.03 10.5 1.44 10.69 0.84 10.88C0.29 9.99 0 8.77 0 7.52C0 6.32 0.27 5.09 0.85 4.07C1.05 4.15 1.25 4.22 1.45 4.3C1.8 4.43 2.16 4.56 2.51 4.68ZM10.72 5.2C11.3 5.02 11.87 4.83 12.44 4.65C13.01 4.47 13.58 4.29 14.16 4.11C14.71 5.07 15 6.28 15 7.5C15 8.71 14.72 9.91 14.16 10.87C13.01 10.52 11.88 10.16 10.72 9.79C10.88 9.03 10.96 8.26 10.96 7.48C10.96 6.72 10.88 5.96 10.72 5.2ZM5.21 9.72C5.05 8.97 4.97 8.24 4.97 7.5C4.97 6.77 5.05 6.05 5.2 5.32C5.44 5.33 5.67 5.35 5.9 5.37C6.44 5.41 6.97 5.44 7.49 5.44C8.02 5.44 8.54 5.41 9.08 5.37C9.31 5.35 9.55 5.33 9.79 5.32C9.95 6.03 10.02 6.74 10.02 7.47C10.02 8.21 9.94 8.96 9.78 9.72C8.25 9.52 6.75 9.51 5.21 9.72ZM7.5 14.3C6.57 13.22 5.89 12.02 5.45 10.64C6.82 10.45 8.15 10.45 9.54 10.63C9.1 12 8.43 13.2 7.5 14.3ZM6.85 15C4.49 14.71 2.7 13.65 1.28 11.71C1.63 11.6 1.97 11.5 2.32 11.39L2.32 11.39C3.05 11.17 3.76 10.95 4.49 10.72C4.99 12.33 5.75 13.71 6.85 15ZM13.66 11.77C12.31 13.65 10.5 14.71 8.14 15C9.23 13.72 10 12.34 10.48 10.78C11.58 10.99 12.62 11.31 13.66 11.77Z" fill="#EBF29D" fill-opacity="1.000000" fill-rule="evenodd"/>
</svg>
